<?xml version="1.0" encoding="utf-8"?>
<svg xmlns="http://www.w3.org/2000/svg" viewBox="0 0 250 35" xmlns:bx="https://boxy-svg.com" width="250px" height="35px"><defs><linearGradient id="paint0_linear" x1="8.62526" y1="14.0888" x2="5.56709" y2="17.1469" gradientUnits="userSpaceOnUse" gradientTransform="matrix(1, 0, 0, 1, 138.270832, 228.115833)"><stop stop-color="#003a8c"/><stop offset="0.9637" stop-color="#096dd9" stop-opacity="0"/></linearGradient><linearGradient id="paint1_linear" x1="26.2675" y1="14.1279" x2="28.7404" y2="16.938" gradientUnits="userSpaceOnUse" gradientTransform="matrix(1, 0, 0, 1, 138.270832, 228.115833)"><stop stop-color="#003a8c"/><stop offset="1" stop-color="#096dd9" stop-opacity="0"/></linearGradient><bx:export><bx:file format="svg" path="Untitled 2.svg"/></bx:export><style bx:fonts="Akatab">@import url(https://fonts.googleapis.com/css2?family=Akatab%3Aital%2Cwght%400%2C400%3B0%2C500%3B0%2C600%3B0%2C700%3B0%2C800%3B0%2C900&amp;display=swap);</style></defs><g transform="matrix(1, 0, 0, 1.07826, -143.649796, -165.378067)" style=""><g transform="matrix(1, 0, 0, 1, 13.563502, -75.47438)"><path d="M 142.907 243.98 L 145.219 241.668 L 145.221 241.666 L 149.572 241.666 L 147.841 243.397 L 147.394 243.844 L 145.621 245.616 L 145.841 245.836 L 155.771 255.766 L 165.921 245.616 L 164.148 243.844 L 164.023 243.718 L 161.97 241.666 L 166.321 241.666 L 166.323 241.668 L 168.135 243.48 L 170.271 245.616 L 155.771 260.116 L 141.271 245.616 L 142.907 243.98 Z M 155.771 231.116 L 164.149 239.494 L 159.799 239.494 L 155.771 235.466 L 151.743 239.494 L 147.393 239.494 L 155.771 231.116 Z" fill="#096dd9" style="stroke-width: 1;"/><g><path d="M 145.621 245.616 L 147.394 243.844 L 147.841 243.397 L 146.11 241.666 L 145.221 241.666 L 145.219 241.668 L 142.907 243.98 L 145.126 246.189 L 145.621 245.616 Z" fill="url(#paint0_linear)" style="stroke-width: 1;"/><path d="M 164.148 243.844 L 165.921 245.616 L 165.745 245.792 L 165.746 245.792 L 168.135 243.48 L 166.323 241.668 L 166.321 241.666 L 166.145 241.666 L 164.023 243.718 L 164.148 243.844 Z" fill="url(#paint1_linear)" style="stroke-width: 1;"/><path d="M 145.216 241.666 L 145.219 241.668 L 147.394 243.844 L 155.771 252.22 L 166.325 241.666 L 145.216 241.666 Z" fill="#1890ff" style="stroke-width: 1;"/><text style="fill: rgb(51, 51, 51); font-family: Akatab; font-size: 28px; white-space: pre;" transform="matrix(1.062842, 0, 0, 1, -10.84812, 0)" x="172.626" y="255.72">Task Manager</text></g></g></g></svg>